%TF.GenerationSoftware,KiCad,Pcbnew,(7.0.0)*%
%TF.CreationDate,2023-03-11T20:18:40+01:00*%
%TF.ProjectId,Voyager20-TQFP,566f7961-6765-4723-9230-2d545146502e,rev?*%
%TF.SameCoordinates,Original*%
%TF.FileFunction,Soldermask,Bot*%
%TF.FilePolarity,Negative*%
%FSLAX46Y46*%
G04 Gerber Fmt 4.6, Leading zero omitted, Abs format (unit mm)*
G04 Created by KiCad (PCBNEW (7.0.0)) date 2023-03-11 20:18:40*
%MOMM*%
%LPD*%
G01*
G04 APERTURE LIST*
G04 Aperture macros list*
%AMRoundRect*
0 Rectangle with rounded corners*
0 $1 Rounding radius*
0 $2 $3 $4 $5 $6 $7 $8 $9 X,Y pos of 4 corners*
0 Add a 4 corners polygon primitive as box body*
4,1,4,$2,$3,$4,$5,$6,$7,$8,$9,$2,$3,0*
0 Add four circle primitives for the rounded corners*
1,1,$1+$1,$2,$3*
1,1,$1+$1,$4,$5*
1,1,$1+$1,$6,$7*
1,1,$1+$1,$8,$9*
0 Add four rect primitives between the rounded corners*
20,1,$1+$1,$2,$3,$4,$5,0*
20,1,$1+$1,$4,$5,$6,$7,0*
20,1,$1+$1,$6,$7,$8,$9,0*
20,1,$1+$1,$8,$9,$2,$3,0*%
%AMHorizOval*
0 Thick line with rounded ends*
0 $1 width*
0 $2 $3 position (X,Y) of the first rounded end (center of the circle)*
0 $4 $5 position (X,Y) of the second rounded end (center of the circle)*
0 Add line between two ends*
20,1,$1,$2,$3,$4,$5,0*
0 Add two circle primitives to create the rounded ends*
1,1,$1,$2,$3*
1,1,$1,$4,$5*%
G04 Aperture macros list end*
%ADD10C,2.150000*%
%ADD11C,4.387800*%
%ADD12HorizOval,2.650000X0.655001X0.730000X-0.655001X-0.730000X0*%
%ADD13C,2.650000*%
%ADD14HorizOval,2.650000X0.020000X0.290000X-0.020000X-0.290000X0*%
%ADD15C,2.305000*%
%ADD16RoundRect,0.200000X-0.952500X-0.952500X0.952500X-0.952500X0.952500X0.952500X-0.952500X0.952500X0*%
%ADD17C,3.448000*%
%ADD18HorizOval,2.650000X-0.730000X0.655001X0.730000X-0.655001X0*%
%ADD19HorizOval,2.650000X-0.290000X0.020000X0.290000X-0.020000X0*%
%ADD20RoundRect,0.200000X0.952500X-0.952500X0.952500X0.952500X-0.952500X0.952500X-0.952500X-0.952500X0*%
%ADD21RoundRect,0.200000X-0.017678X-0.548008X0.548008X0.017678X0.017678X0.548008X-0.548008X-0.017678X0*%
%ADD22RoundRect,0.200000X0.548008X-0.017678X-0.017678X0.548008X-0.548008X0.017678X0.017678X-0.548008X0*%
%ADD23RoundRect,0.200000X0.375000X-0.400000X0.375000X0.400000X-0.375000X0.400000X-0.375000X-0.400000X0*%
%ADD24RoundRect,0.200000X0.400000X0.375000X-0.400000X0.375000X-0.400000X-0.375000X0.400000X-0.375000X0*%
%ADD25RoundRect,0.200000X0.600000X-0.450000X0.600000X0.450000X-0.600000X0.450000X-0.600000X-0.450000X0*%
%ADD26RoundRect,0.200000X0.500000X-0.800000X0.500000X0.800000X-0.500000X0.800000X-0.500000X-0.800000X0*%
%ADD27RoundRect,0.200000X-1.015000X-0.570000X1.015000X-0.570000X1.015000X0.570000X-1.015000X0.570000X0*%
%ADD28RoundRect,0.200000X-0.650000X0.350000X-0.650000X-0.350000X0.650000X-0.350000X0.650000X0.350000X0*%
%ADD29RoundRect,0.200000X0.350000X0.650000X-0.350000X0.650000X-0.350000X-0.650000X0.350000X-0.650000X0*%
%ADD30RoundRect,0.200000X-0.350000X-0.650000X0.350000X-0.650000X0.350000X0.650000X-0.350000X0.650000X0*%
%ADD31RoundRect,0.200000X0.650000X-0.350000X0.650000X0.350000X-0.650000X0.350000X-0.650000X-0.350000X0*%
%ADD32RoundRect,0.200000X-0.900000X-0.550000X0.900000X-0.550000X0.900000X0.550000X-0.900000X0.550000X0*%
%ADD33RoundRect,0.200000X-0.350000X0.500000X-0.350000X-0.500000X0.350000X-0.500000X0.350000X0.500000X0*%
%ADD34RoundRect,0.200000X-0.350000X0.300000X-0.350000X-0.300000X0.350000X-0.300000X0.350000X0.300000X0*%
%ADD35C,1.050000*%
%ADD36RoundRect,0.200000X-0.300000X-0.725000X0.300000X-0.725000X0.300000X0.725000X-0.300000X0.725000X0*%
%ADD37RoundRect,0.200000X-0.150000X-0.725000X0.150000X-0.725000X0.150000X0.725000X-0.150000X0.725000X0*%
%ADD38O,1.400000X2.000000*%
%ADD39O,1.400000X2.500000*%
%ADD40RoundRect,0.200000X-0.070711X-0.919239X0.919239X0.070711X0.070711X0.919239X-0.919239X-0.070711X0*%
%ADD41RoundRect,0.200000X0.371231X0.760140X-0.760140X-0.371231X-0.371231X-0.760140X0.760140X0.371231X0*%
%ADD42RoundRect,0.200000X0.760140X-0.371231X-0.371231X0.760140X-0.760140X0.371231X0.371231X-0.760140X0*%
%ADD43RoundRect,0.200000X0.450000X0.400000X-0.450000X0.400000X-0.450000X-0.400000X0.450000X-0.400000X0*%
G04 APERTURE END LIST*
D10*
X42545000Y-39687500D03*
D11*
X47625000Y-39687500D03*
D10*
X52705000Y-39687500D03*
D12*
X44470000Y-36417499D03*
D13*
X45125000Y-35687500D03*
D14*
X50144999Y-34897499D03*
D13*
X50165000Y-34607500D03*
D15*
X46355000Y-44767500D03*
D16*
X48895000Y-44767500D03*
D10*
X61595000Y-39687500D03*
D11*
X66675000Y-39687500D03*
D10*
X71755000Y-39687500D03*
D12*
X63520000Y-36417499D03*
D13*
X64175000Y-35687500D03*
D14*
X69194999Y-34897499D03*
D13*
X69215000Y-34607500D03*
D15*
X65405000Y-44767500D03*
D16*
X67945000Y-44767500D03*
D10*
X80645000Y-39687500D03*
D11*
X85725000Y-39687500D03*
D10*
X90805000Y-39687500D03*
D12*
X82570000Y-36417499D03*
D13*
X83225000Y-35687500D03*
D14*
X88244999Y-34897499D03*
D13*
X88265000Y-34607500D03*
D15*
X84455000Y-44767500D03*
D16*
X86995000Y-44767500D03*
D10*
X99695000Y-39687500D03*
D11*
X104775000Y-39687500D03*
D10*
X109855000Y-39687500D03*
D12*
X101620000Y-36417499D03*
D13*
X102275000Y-35687500D03*
D14*
X107294999Y-34897499D03*
D13*
X107315000Y-34607500D03*
D15*
X103505000Y-44767500D03*
D16*
X106045000Y-44767500D03*
D10*
X42545000Y-58737500D03*
D11*
X47625000Y-58737500D03*
D10*
X52705000Y-58737500D03*
D12*
X44470000Y-55467499D03*
D13*
X45125000Y-54737500D03*
D14*
X50144999Y-53947499D03*
D13*
X50165000Y-53657500D03*
D15*
X46355000Y-63817500D03*
D16*
X48895000Y-63817500D03*
D10*
X61595000Y-58737500D03*
D11*
X66675000Y-58737500D03*
D10*
X71755000Y-58737500D03*
D12*
X63520000Y-55467499D03*
D13*
X64175000Y-54737500D03*
D14*
X69194999Y-53947499D03*
D13*
X69215000Y-53657500D03*
D15*
X65405000Y-63817500D03*
D16*
X67945000Y-63817500D03*
D10*
X80645000Y-58737500D03*
D11*
X85725000Y-58737500D03*
D10*
X90805000Y-58737500D03*
D12*
X82570000Y-55467499D03*
D13*
X83225000Y-54737500D03*
D14*
X88244999Y-53947499D03*
D13*
X88265000Y-53657500D03*
D15*
X84455000Y-63817500D03*
D16*
X86995000Y-63817500D03*
D10*
X99695000Y-58737500D03*
D11*
X104775000Y-58737500D03*
D10*
X109855000Y-58737500D03*
D12*
X101620000Y-55467499D03*
D13*
X102275000Y-54737500D03*
D14*
X107294999Y-53947499D03*
D13*
X107315000Y-53657500D03*
D15*
X103505000Y-63817500D03*
D16*
X106045000Y-63817500D03*
D10*
X42545000Y-77787500D03*
D11*
X47625000Y-77787500D03*
D10*
X52705000Y-77787500D03*
D12*
X44470000Y-74517499D03*
D13*
X45125000Y-73787500D03*
D14*
X50144999Y-72997499D03*
D13*
X50165000Y-72707500D03*
D15*
X46355000Y-82867500D03*
D16*
X48895000Y-82867500D03*
D10*
X61595000Y-77787500D03*
D11*
X66675000Y-77787500D03*
D10*
X71755000Y-77787500D03*
D12*
X63520000Y-74517499D03*
D13*
X64175000Y-73787500D03*
D14*
X69194999Y-72997499D03*
D13*
X69215000Y-72707500D03*
D15*
X65405000Y-82867500D03*
D16*
X67945000Y-82867500D03*
D10*
X80645000Y-77787500D03*
D11*
X85725000Y-77787500D03*
D10*
X90805000Y-77787500D03*
D12*
X82570000Y-74517499D03*
D13*
X83225000Y-73787500D03*
D14*
X88244999Y-72997499D03*
D13*
X88265000Y-72707500D03*
D15*
X84455000Y-82867500D03*
D16*
X86995000Y-82867500D03*
D10*
X99695000Y-77787500D03*
D11*
X104775000Y-77787500D03*
D10*
X109855000Y-77787500D03*
D12*
X101620000Y-74517499D03*
D13*
X102275000Y-73787500D03*
D14*
X107294999Y-72997499D03*
D13*
X107315000Y-72707500D03*
D15*
X103505000Y-82867500D03*
D16*
X106045000Y-82867500D03*
D10*
X42545000Y-96837500D03*
D11*
X47625000Y-96837500D03*
D10*
X52705000Y-96837500D03*
D12*
X44470000Y-93567499D03*
D13*
X45125000Y-92837500D03*
D14*
X50144999Y-92047499D03*
D13*
X50165000Y-91757500D03*
D15*
X46355000Y-101917500D03*
D16*
X48895000Y-101917500D03*
D10*
X61595000Y-96837500D03*
D11*
X66675000Y-96837500D03*
D10*
X71755000Y-96837500D03*
D12*
X63520000Y-93567499D03*
D13*
X64175000Y-92837500D03*
D14*
X69194999Y-92047499D03*
D13*
X69215000Y-91757500D03*
D15*
X65405000Y-101917500D03*
D16*
X67945000Y-101917500D03*
D10*
X80645000Y-96837500D03*
D11*
X85725000Y-96837500D03*
D10*
X90805000Y-96837500D03*
D12*
X82570000Y-93567499D03*
D13*
X83225000Y-92837500D03*
D14*
X88244999Y-92047499D03*
D13*
X88265000Y-91757500D03*
D15*
X84455000Y-101917500D03*
D16*
X86995000Y-101917500D03*
D10*
X99695000Y-96837500D03*
D11*
X104775000Y-96837500D03*
D10*
X109855000Y-96837500D03*
D12*
X101620000Y-93567499D03*
D13*
X102275000Y-92837500D03*
D14*
X107294999Y-92047499D03*
D13*
X107315000Y-91757500D03*
D15*
X103505000Y-101917500D03*
D16*
X106045000Y-101917500D03*
D10*
X42545000Y-115887500D03*
D11*
X47625000Y-115887500D03*
D10*
X52705000Y-115887500D03*
D12*
X44470000Y-112617499D03*
D13*
X45125000Y-111887500D03*
D14*
X50144999Y-111097499D03*
D13*
X50165000Y-110807500D03*
D15*
X46355000Y-120967500D03*
D16*
X48895000Y-120967500D03*
D10*
X61595000Y-115887500D03*
D11*
X66675000Y-115887500D03*
D10*
X71755000Y-115887500D03*
D12*
X63520000Y-112617499D03*
D13*
X64175000Y-111887500D03*
D14*
X69194999Y-111097499D03*
D13*
X69215000Y-110807500D03*
D15*
X65405000Y-120967500D03*
D16*
X67945000Y-120967500D03*
D10*
X80645000Y-115887500D03*
D11*
X85725000Y-115887500D03*
D10*
X90805000Y-115887500D03*
D12*
X82570000Y-112617499D03*
D13*
X83225000Y-111887500D03*
D14*
X88244999Y-111097499D03*
D13*
X88265000Y-110807500D03*
D15*
X84455000Y-120967500D03*
D16*
X86995000Y-120967500D03*
D10*
X99695000Y-115887500D03*
D11*
X104775000Y-115887500D03*
D10*
X109855000Y-115887500D03*
D12*
X101620000Y-112617499D03*
D13*
X102275000Y-111887500D03*
D14*
X107294999Y-111097499D03*
D13*
X107315000Y-110807500D03*
D15*
X103505000Y-120967500D03*
D16*
X106045000Y-120967500D03*
D11*
X96520000Y-80200500D03*
D17*
X111760000Y-80200500D03*
D10*
X104775000Y-73342500D03*
D11*
X104775000Y-68262500D03*
D10*
X104775000Y-63182500D03*
D11*
X96520000Y-56324500D03*
D17*
X111760000Y-56324500D03*
D18*
X101504999Y-71417498D03*
D13*
X100775000Y-70762500D03*
D19*
X99984999Y-65742499D03*
D13*
X99695000Y-65722500D03*
D15*
X109855000Y-69532500D03*
D20*
X109855000Y-66992500D03*
D11*
X96520000Y-118300500D03*
D17*
X111760000Y-118300500D03*
D10*
X104775000Y-111442500D03*
D11*
X104775000Y-106362500D03*
D10*
X104775000Y-101282500D03*
D11*
X96520000Y-94424500D03*
D17*
X111760000Y-94424500D03*
D18*
X101504999Y-109517498D03*
D13*
X100775000Y-108862500D03*
D19*
X99984999Y-103842499D03*
D13*
X99695000Y-103822500D03*
D15*
X109855000Y-107632500D03*
D20*
X109855000Y-105092500D03*
D11*
X45212000Y-107632500D03*
D17*
X45212000Y-122872500D03*
D10*
X52070000Y-115887500D03*
D11*
X57150000Y-115887500D03*
D10*
X62230000Y-115887500D03*
D11*
X69088000Y-107632500D03*
D17*
X69088000Y-122872500D03*
D12*
X53995000Y-112617499D03*
D13*
X54650000Y-111887500D03*
D14*
X59669999Y-111097499D03*
D13*
X59690000Y-110807500D03*
D15*
X55880000Y-120967500D03*
D16*
X58420000Y-120967500D03*
D21*
X74361224Y-57036733D03*
X75421884Y-55976073D03*
D22*
X79298822Y-56772168D03*
X78238162Y-55711508D03*
D23*
X70893357Y-62588638D03*
X70893357Y-61088638D03*
D22*
X81418539Y-62334432D03*
X80357879Y-61273772D03*
X73976630Y-62294550D03*
X72915970Y-61233890D03*
X74900047Y-61371133D03*
X73839387Y-60310473D03*
D24*
X59487500Y-53975000D03*
X57987500Y-53975000D03*
D23*
X98425000Y-49168750D03*
X98425000Y-47668750D03*
X63500000Y-107112500D03*
X63500000Y-105612500D03*
X88900000Y-107112500D03*
X88900000Y-105612500D03*
D25*
X42068750Y-45306250D03*
X42068750Y-42006250D03*
X74612500Y-41337500D03*
X74612500Y-38037500D03*
X77787500Y-41337500D03*
X77787500Y-38037500D03*
X93662500Y-41337500D03*
X93662500Y-38037500D03*
X42068750Y-64356250D03*
X42068750Y-61056250D03*
X58737500Y-60387500D03*
X58737500Y-57087500D03*
D26*
X60337500Y-50918750D03*
X57137500Y-50918750D03*
X57137500Y-45918750D03*
X60337500Y-45918750D03*
D25*
X55562500Y-79437500D03*
X55562500Y-76137500D03*
X58737500Y-79437500D03*
X58737500Y-76137500D03*
X92868750Y-75468750D03*
X92868750Y-72168750D03*
X96043750Y-75468750D03*
X96043750Y-72168750D03*
X77787500Y-98487500D03*
X77787500Y-95187500D03*
X74612500Y-98487500D03*
X74612500Y-95187500D03*
X53975000Y-105631250D03*
X53975000Y-102331250D03*
X74612500Y-115950000D03*
X74612500Y-112650000D03*
X77787500Y-115950000D03*
X77787500Y-112650000D03*
X94456250Y-112775000D03*
X94456250Y-109475000D03*
D26*
X95262500Y-104893750D03*
X92062500Y-104893750D03*
X92062500Y-99893750D03*
X95262500Y-99893750D03*
X60337500Y-104893750D03*
X57137500Y-104893750D03*
X57137500Y-99893750D03*
X60337500Y-99893750D03*
D27*
X52387500Y-50412500D03*
X52387500Y-48012500D03*
D28*
X88900000Y-86362500D03*
X88900000Y-88262500D03*
D29*
X62068750Y-66675000D03*
X60168750Y-66675000D03*
D30*
X60168750Y-69850000D03*
X62068750Y-69850000D03*
X60962500Y-42068750D03*
X62862500Y-42068750D03*
D28*
X86260895Y-67331032D03*
X86260895Y-69231032D03*
X50800000Y-38737500D03*
X50800000Y-40637500D03*
D29*
X48575000Y-49212500D03*
X46675000Y-49212500D03*
D31*
X96837500Y-40637500D03*
X96837500Y-38737500D03*
X53181250Y-65243750D03*
X53181250Y-63343750D03*
X69850000Y-59687500D03*
X69850000Y-57787500D03*
X92868750Y-69212500D03*
X92868750Y-67312500D03*
X96043750Y-69212500D03*
X96043750Y-67312500D03*
X55562500Y-84293750D03*
X55562500Y-82393750D03*
X58737500Y-84293750D03*
X58737500Y-82393750D03*
X80168750Y-84293750D03*
X80168750Y-82393750D03*
D29*
X105725000Y-87312500D03*
X103825000Y-87312500D03*
D31*
X77787500Y-103343750D03*
X77787500Y-101443750D03*
X74612500Y-103343750D03*
X74612500Y-101443750D03*
X52387500Y-120012500D03*
X52387500Y-118112500D03*
X61912500Y-120012500D03*
X61912500Y-118112500D03*
X77787500Y-120806250D03*
X77787500Y-118906250D03*
X91281250Y-120806250D03*
X91281250Y-118906250D03*
D32*
X98350000Y-85462500D03*
X92150000Y-89162500D03*
X98350000Y-89162500D03*
X92150000Y-85462500D03*
D33*
X58150000Y-38937500D03*
D34*
X58150000Y-40637500D03*
X56150000Y-40637500D03*
X56150000Y-38737500D03*
D35*
X54260000Y-33237500D03*
X60040000Y-33237500D03*
D36*
X53925000Y-34682500D03*
X54700000Y-34682500D03*
D37*
X55400000Y-34682500D03*
X55900000Y-34682500D03*
X56400000Y-34682500D03*
X56900000Y-34682500D03*
X57400000Y-34682500D03*
X57900000Y-34682500D03*
X58400000Y-34682500D03*
X58900000Y-34682500D03*
D36*
X59600000Y-34682500D03*
X60375000Y-34682500D03*
D38*
X52829999Y-29587499D03*
D39*
X52829999Y-33767499D03*
D38*
X61469999Y-29587499D03*
D39*
X61469999Y-33767499D03*
D40*
X76396139Y-60026554D03*
X77951774Y-58470919D03*
X76749693Y-57268838D03*
X75194058Y-58824473D03*
D41*
X78087295Y-63107341D03*
X78652980Y-63673027D03*
X79218666Y-64238712D03*
X79784351Y-64804397D03*
X80350037Y-65370083D03*
X80915722Y-65935768D03*
X81481407Y-66501454D03*
X82047093Y-67067139D03*
D42*
X82047093Y-69117749D03*
X81481407Y-69683434D03*
X80915722Y-70249120D03*
X80350037Y-70814805D03*
X79784351Y-71380491D03*
X79218666Y-71946176D03*
X78652980Y-72511861D03*
X78087295Y-73077547D03*
D41*
X76036685Y-73077547D03*
X75471000Y-72511861D03*
X74905314Y-71946176D03*
X74339629Y-71380491D03*
X73773943Y-70814805D03*
X73208258Y-70249120D03*
X72642573Y-69683434D03*
X72076887Y-69117749D03*
D42*
X72076887Y-67067139D03*
X72642573Y-66501454D03*
X73208258Y-65935768D03*
X73773943Y-65370083D03*
X74339629Y-64804397D03*
X74905314Y-64238712D03*
X75471000Y-63673027D03*
X76036685Y-63107341D03*
D26*
X95262500Y-50918750D03*
X92062500Y-50918750D03*
X92062500Y-45918750D03*
X95262500Y-45918750D03*
D43*
X75612500Y-85568750D03*
X75612500Y-87468750D03*
X73612500Y-86518750D03*
D29*
X75562500Y-82550000D03*
X73662500Y-82550000D03*
D31*
X58737500Y-96200000D03*
X58737500Y-94300000D03*
X55562500Y-96200000D03*
X55562500Y-94300000D03*
D25*
X58737500Y-91343750D03*
X58737500Y-88043750D03*
X55562500Y-91343750D03*
X55562500Y-88043750D03*
X96043750Y-64356250D03*
X96043750Y-61056250D03*
X92868750Y-64356250D03*
X92868750Y-61056250D03*
D31*
X77787500Y-46193750D03*
X77787500Y-44293750D03*
X74612500Y-46193750D03*
X74612500Y-44293750D03*
M02*
