%TF.GenerationSoftware,KiCad,Pcbnew,(7.0.0)*%
%TF.CreationDate,2023-03-11T20:18:40+01:00*%
%TF.ProjectId,Voyager20-TQFP,566f7961-6765-4723-9230-2d545146502e,rev?*%
%TF.SameCoordinates,Original*%
%TF.FileFunction,Copper,L1,Top*%
%TF.FilePolarity,Positive*%
%FSLAX46Y46*%
G04 Gerber Fmt 4.6, Leading zero omitted, Abs format (unit mm)*
G04 Created by KiCad (PCBNEW (7.0.0)) date 2023-03-11 20:18:40*
%MOMM*%
%LPD*%
G01*
G04 APERTURE LIST*
G04 Aperture macros list*
%AMHorizOval*
0 Thick line with rounded ends*
0 $1 width*
0 $2 $3 position (X,Y) of the first rounded end (center of the circle)*
0 $4 $5 position (X,Y) of the second rounded end (center of the circle)*
0 Add line between two ends*
20,1,$1,$2,$3,$4,$5,0*
0 Add two circle primitives to create the rounded ends*
1,1,$1,$2,$3*
1,1,$1,$4,$5*%
G04 Aperture macros list end*
%TA.AperFunction,ComponentPad*%
%ADD10HorizOval,2.250000X0.655001X0.730000X-0.655001X-0.730000X0*%
%TD*%
%TA.AperFunction,ComponentPad*%
%ADD11C,2.250000*%
%TD*%
%TA.AperFunction,ComponentPad*%
%ADD12HorizOval,2.250000X0.020000X0.290000X-0.020000X-0.290000X0*%
%TD*%
%TA.AperFunction,ComponentPad*%
%ADD13C,1.905000*%
%TD*%
%TA.AperFunction,ComponentPad*%
%ADD14R,1.905000X1.905000*%
%TD*%
%TA.AperFunction,ComponentPad*%
%ADD15HorizOval,2.250000X-0.730000X0.655001X0.730000X-0.655001X0*%
%TD*%
%TA.AperFunction,ComponentPad*%
%ADD16HorizOval,2.250000X-0.290000X0.020000X0.290000X-0.020000X0*%
%TD*%
%TA.AperFunction,ComponentPad*%
%ADD17O,1.000000X1.600000*%
%TD*%
%TA.AperFunction,ComponentPad*%
%ADD18O,1.000000X2.100000*%
%TD*%
%TA.AperFunction,ViaPad*%
%ADD19C,0.600000*%
%TD*%
%TA.AperFunction,Conductor*%
%ADD20C,0.381000*%
%TD*%
%TA.AperFunction,Conductor*%
%ADD21C,0.254000*%
%TD*%
G04 APERTURE END LIST*
D10*
X44470000Y-36417499D03*
D11*
X45125000Y-35687500D03*
D12*
X50144999Y-34897499D03*
D11*
X50165000Y-34607500D03*
D13*
X46355000Y-44767500D03*
D14*
X48894999Y-44767499D03*
D10*
X63520000Y-36417499D03*
D11*
X64175000Y-35687500D03*
D12*
X69194999Y-34897499D03*
D11*
X69215000Y-34607500D03*
D13*
X65405000Y-44767500D03*
D14*
X67944999Y-44767499D03*
D10*
X82570000Y-36417499D03*
D11*
X83225000Y-35687500D03*
D12*
X88244999Y-34897499D03*
D11*
X88265000Y-34607500D03*
D13*
X84455000Y-44767500D03*
D14*
X86994999Y-44767499D03*
D10*
X101620000Y-36417499D03*
D11*
X102275000Y-35687500D03*
D12*
X107294999Y-34897499D03*
D11*
X107315000Y-34607500D03*
D13*
X103505000Y-44767500D03*
D14*
X106044999Y-44767499D03*
D10*
X44470000Y-55467499D03*
D11*
X45125000Y-54737500D03*
D12*
X50144999Y-53947499D03*
D11*
X50165000Y-53657500D03*
D13*
X46355000Y-63817500D03*
D14*
X48894999Y-63817499D03*
D10*
X63520000Y-55467499D03*
D11*
X64175000Y-54737500D03*
D12*
X69194999Y-53947499D03*
D11*
X69215000Y-53657500D03*
D13*
X65405000Y-63817500D03*
D14*
X67944999Y-63817499D03*
D10*
X82570000Y-55467499D03*
D11*
X83225000Y-54737500D03*
D12*
X88244999Y-53947499D03*
D11*
X88265000Y-53657500D03*
D13*
X84455000Y-63817500D03*
D14*
X86994999Y-63817499D03*
D10*
X101620000Y-55467499D03*
D11*
X102275000Y-54737500D03*
D12*
X107294999Y-53947499D03*
D11*
X107315000Y-53657500D03*
D13*
X103505000Y-63817500D03*
D14*
X106044999Y-63817499D03*
D10*
X44470000Y-74517499D03*
D11*
X45125000Y-73787500D03*
D12*
X50144999Y-72997499D03*
D11*
X50165000Y-72707500D03*
D13*
X46355000Y-82867500D03*
D14*
X48894999Y-82867499D03*
D10*
X63520000Y-74517499D03*
D11*
X64175000Y-73787500D03*
D12*
X69194999Y-72997499D03*
D11*
X69215000Y-72707500D03*
D13*
X65405000Y-82867500D03*
D14*
X67944999Y-82867499D03*
D10*
X82570000Y-74517499D03*
D11*
X83225000Y-73787500D03*
D12*
X88244999Y-72997499D03*
D11*
X88265000Y-72707500D03*
D13*
X84455000Y-82867500D03*
D14*
X86994999Y-82867499D03*
D10*
X101620000Y-74517499D03*
D11*
X102275000Y-73787500D03*
D12*
X107294999Y-72997499D03*
D11*
X107315000Y-72707500D03*
D13*
X103505000Y-82867500D03*
D14*
X106044999Y-82867499D03*
D10*
X44470000Y-93567499D03*
D11*
X45125000Y-92837500D03*
D12*
X50144999Y-92047499D03*
D11*
X50165000Y-91757500D03*
D13*
X46355000Y-101917500D03*
D14*
X48894999Y-101917499D03*
D10*
X63520000Y-93567499D03*
D11*
X64175000Y-92837500D03*
D12*
X69194999Y-92047499D03*
D11*
X69215000Y-91757500D03*
D13*
X65405000Y-101917500D03*
D14*
X67944999Y-101917499D03*
D10*
X82570000Y-93567499D03*
D11*
X83225000Y-92837500D03*
D12*
X88244999Y-92047499D03*
D11*
X88265000Y-91757500D03*
D13*
X84455000Y-101917500D03*
D14*
X86994999Y-101917499D03*
D10*
X101620000Y-93567499D03*
D11*
X102275000Y-92837500D03*
D12*
X107294999Y-92047499D03*
D11*
X107315000Y-91757500D03*
D13*
X103505000Y-101917500D03*
D14*
X106044999Y-101917499D03*
D10*
X44470000Y-112617499D03*
D11*
X45125000Y-111887500D03*
D12*
X50144999Y-111097499D03*
D11*
X50165000Y-110807500D03*
D13*
X46355000Y-120967500D03*
D14*
X48894999Y-120967499D03*
D10*
X63520000Y-112617499D03*
D11*
X64175000Y-111887500D03*
D12*
X69194999Y-111097499D03*
D11*
X69215000Y-110807500D03*
D13*
X65405000Y-120967500D03*
D14*
X67944999Y-120967499D03*
D10*
X82570000Y-112617499D03*
D11*
X83225000Y-111887500D03*
D12*
X88244999Y-111097499D03*
D11*
X88265000Y-110807500D03*
D13*
X84455000Y-120967500D03*
D14*
X86994999Y-120967499D03*
D10*
X101620000Y-112617499D03*
D11*
X102275000Y-111887500D03*
D12*
X107294999Y-111097499D03*
D11*
X107315000Y-110807500D03*
D13*
X103505000Y-120967500D03*
D14*
X106044999Y-120967499D03*
D15*
X101504999Y-71417498D03*
D11*
X100775000Y-70762500D03*
D16*
X99984999Y-65742499D03*
D11*
X99695000Y-65722500D03*
D13*
X109855000Y-69532500D03*
D14*
X109854999Y-66992499D03*
D15*
X101504999Y-109517498D03*
D11*
X100775000Y-108862500D03*
D16*
X99984999Y-103842499D03*
D11*
X99695000Y-103822500D03*
D13*
X109855000Y-107632500D03*
D14*
X109854999Y-105092499D03*
D10*
X53995000Y-112617499D03*
D11*
X54650000Y-111887500D03*
D12*
X59669999Y-111097499D03*
D11*
X59690000Y-110807500D03*
D13*
X55880000Y-120967500D03*
D14*
X58419999Y-120967499D03*
D17*
X52829999Y-29587499D03*
D18*
X52829999Y-33767499D03*
D17*
X61469999Y-29587499D03*
D18*
X61469999Y-33767499D03*
D19*
X82675481Y-68129239D03*
X93853000Y-48006000D03*
X72007097Y-62200262D03*
X78000000Y-66000000D03*
X93726000Y-83185000D03*
X52324000Y-41402000D03*
X59309000Y-39624000D03*
X90043000Y-105537000D03*
X74943604Y-66323575D03*
X92075000Y-101346000D03*
X70475993Y-63852417D03*
X74214957Y-66956577D03*
X83566000Y-106172000D03*
X64694285Y-66374768D03*
X52451000Y-51689000D03*
X82514333Y-61288436D03*
X64516000Y-107061000D03*
X54483000Y-66294000D03*
X83566000Y-86360000D03*
X81788000Y-51562000D03*
X81788000Y-41783000D03*
X59817000Y-43434000D03*
X51562000Y-42672000D03*
X73000000Y-80391000D03*
X80645000Y-80391000D03*
X71755000Y-81915000D03*
X71755000Y-94996000D03*
X58547000Y-37084000D03*
X55753000Y-37084000D03*
X95250000Y-70866000D03*
X77538625Y-81387899D03*
X81788000Y-88519000D03*
X75000000Y-68348645D03*
X77528191Y-79305429D03*
X74832524Y-69730872D03*
X65532000Y-47244000D03*
X92075000Y-52578000D03*
X93980000Y-99822000D03*
X54610000Y-43307000D03*
X59055000Y-66675000D03*
X55499000Y-43307000D03*
X59055000Y-69850000D03*
X59944000Y-42037000D03*
X58547000Y-36195000D03*
X55753000Y-36195000D03*
X50800000Y-37592000D03*
X57150000Y-52451000D03*
X62738000Y-47752000D03*
X76327000Y-115697000D03*
X76327000Y-84328000D03*
X74549000Y-88900000D03*
X92837000Y-66167000D03*
X92837000Y-90589090D03*
X46736000Y-47752000D03*
X54483000Y-118110000D03*
X50292000Y-61087000D03*
X55499000Y-81280000D03*
X94996000Y-43053000D03*
X74549000Y-100330000D03*
X55499000Y-93218000D03*
D20*
X90043000Y-104394000D02*
X90043000Y-103378000D01*
X93726000Y-83185000D02*
X93599000Y-83312000D01*
X93599000Y-73660000D02*
X93599000Y-48260000D01*
X74943604Y-66266188D02*
X74943604Y-66323575D01*
X93599000Y-101346000D02*
X92583000Y-101346000D01*
X72007097Y-63329681D02*
X74943604Y-66266188D01*
X72007097Y-62200262D02*
X72007097Y-63329681D01*
X70104000Y-60297165D02*
X70104000Y-57658000D01*
X64755500Y-33767500D02*
X61470000Y-33767500D01*
X93599000Y-83312000D02*
X93599000Y-98298000D01*
X93599000Y-83058000D02*
X93726000Y-83185000D01*
X92583000Y-101346000D02*
X92075000Y-101346000D01*
X53213000Y-41402000D02*
X54991000Y-39624000D01*
D21*
X82675481Y-68129239D02*
X80129239Y-68129239D01*
D20*
X93599000Y-98298000D02*
X94742000Y-99441000D01*
X67437000Y-54991000D02*
X67437000Y-48514000D01*
X69596000Y-38608000D02*
X64755500Y-33767500D01*
X69596000Y-46355000D02*
X69596000Y-38608000D01*
X94742000Y-99441000D02*
X94742000Y-100203000D01*
X93599000Y-48260000D02*
X93853000Y-48006000D01*
D21*
X80129239Y-68129239D02*
X78000000Y-66000000D01*
D20*
X90043000Y-105537000D02*
X90043000Y-104394000D01*
X52324000Y-41402000D02*
X53213000Y-41402000D01*
X70104000Y-57658000D02*
X67437000Y-54991000D01*
X67437000Y-48514000D02*
X69596000Y-46355000D01*
X93599000Y-73660000D02*
X93599000Y-83058000D01*
X72007097Y-62200262D02*
X70104000Y-60297165D01*
X54991000Y-39624000D02*
X59309000Y-39624000D01*
X90043000Y-103378000D02*
X92075000Y-101346000D01*
X94742000Y-100203000D02*
X93599000Y-101346000D01*
D21*
X74214957Y-66956577D02*
X71110797Y-63852417D01*
X71110797Y-63852417D02*
X70475993Y-63852417D01*
D20*
X83185000Y-62547500D02*
X84455000Y-63817500D01*
X82514333Y-61876833D02*
X82514333Y-61288436D01*
X45085000Y-46037500D02*
X46355000Y-44767500D01*
X65405000Y-101917500D02*
X65341500Y-101917500D01*
X83185000Y-90297000D02*
X84963000Y-92075000D01*
X83185000Y-84074000D02*
X83185000Y-86360000D01*
X110744000Y-70358000D02*
X110744000Y-72390000D01*
X46863000Y-55626000D02*
X46863000Y-53975000D01*
X84963000Y-92075000D02*
X84963000Y-93726000D01*
X83185000Y-46101000D02*
X83185000Y-52197000D01*
X103505000Y-63817500D02*
X103505000Y-64389000D01*
X56261000Y-119380000D02*
X55880000Y-119761000D01*
X84455000Y-82867500D02*
X84391500Y-82867500D01*
X103505000Y-102362000D02*
X104775000Y-103632000D01*
X64135000Y-109347000D02*
X64135000Y-107061000D01*
X64135000Y-114554000D02*
X65913000Y-112776000D01*
X45085000Y-100647500D02*
X46355000Y-101917500D01*
X102235000Y-100584000D02*
X102235000Y-95631000D01*
X45085000Y-117602000D02*
X45085000Y-114554000D01*
X45085000Y-81597500D02*
X45085000Y-76454000D01*
X83185000Y-100647500D02*
X84455000Y-101917500D01*
X84963000Y-73025000D02*
X84963000Y-74676000D01*
X45085000Y-76454000D02*
X46863000Y-74676000D01*
X104521000Y-81280000D02*
X103505000Y-82296000D01*
X109283500Y-69532500D02*
X109855000Y-69532500D01*
X83185000Y-52197000D02*
X84963000Y-53975000D01*
X104013000Y-93853000D02*
X104013000Y-92075000D01*
X64516000Y-107061000D02*
X64135000Y-107061000D01*
X107823000Y-78486000D02*
X105029000Y-81280000D01*
X109918500Y-69532500D02*
X110744000Y-70358000D01*
X83185000Y-76454000D02*
X83185000Y-81597500D01*
X108204000Y-67945000D02*
X108204000Y-68453000D01*
X45085000Y-62547500D02*
X45085000Y-57404000D01*
X103505000Y-120523000D02*
X104648000Y-119380000D01*
X65913000Y-111125000D02*
X64135000Y-109347000D01*
X108204000Y-106553000D02*
X109283500Y-107632500D01*
X55880000Y-120967500D02*
X55880000Y-120904000D01*
X83185000Y-114681000D02*
X83185000Y-119697500D01*
X103505000Y-44831000D02*
X102235000Y-46101000D01*
X45085000Y-118491000D02*
X46355000Y-119761000D01*
X108204000Y-68453000D02*
X109283500Y-69532500D01*
X102235000Y-46101000D02*
X102235000Y-52070000D01*
X64135000Y-95504000D02*
X65913000Y-93726000D01*
X84963000Y-112903000D02*
X83185000Y-114681000D01*
X45085000Y-65151000D02*
X46355000Y-63881000D01*
X110744000Y-108521500D02*
X109855000Y-107632500D01*
X64135000Y-100711000D02*
X64135000Y-95504000D01*
X110744000Y-72390000D02*
X107823000Y-75311000D01*
X64135000Y-103187500D02*
X65405000Y-101917500D01*
X45085000Y-57404000D02*
X46863000Y-55626000D01*
X46863000Y-93726000D02*
X45085000Y-95504000D01*
X103505000Y-101917500D02*
X103505000Y-102362000D01*
X84391500Y-101917500D02*
X83185000Y-103124000D01*
X105029000Y-119380000D02*
X107823000Y-116586000D01*
X55499000Y-119380000D02*
X55880000Y-119761000D01*
X45085000Y-90170000D02*
X46863000Y-91948000D01*
X103505000Y-101917500D02*
X103505000Y-101854000D01*
X83185000Y-95504000D02*
X83185000Y-100647500D01*
X83566000Y-106172000D02*
X83185000Y-106172000D01*
X104775000Y-65659000D02*
X105918000Y-65659000D01*
X64135000Y-62611000D02*
X64135000Y-57404000D01*
X83185000Y-119697500D02*
X84455000Y-120967500D01*
X104013000Y-53848000D02*
X104013000Y-55753000D01*
X103505000Y-82296000D02*
X103505000Y-82867500D01*
X65913000Y-112776000D02*
X65913000Y-111125000D01*
X84963000Y-55626000D02*
X83185000Y-57404000D01*
X64135000Y-90297000D02*
X64135000Y-84137500D01*
X65405000Y-63817500D02*
X65341500Y-63817500D01*
X54483000Y-66294000D02*
X54102000Y-66294000D01*
X65913000Y-73025000D02*
X65913000Y-74676000D01*
X64694285Y-71806285D02*
X65913000Y-73025000D01*
X109855000Y-69532500D02*
X109918500Y-69532500D01*
X51181000Y-58039000D02*
X52451000Y-56769000D01*
X46355000Y-63881000D02*
X46355000Y-63817500D01*
X64135000Y-119634000D02*
X63881000Y-119380000D01*
X104013000Y-55753000D02*
X102235000Y-57531000D01*
X103505000Y-64389000D02*
X104775000Y-65659000D01*
X45085000Y-114554000D02*
X46863000Y-112776000D01*
X64135000Y-52197000D02*
X64135000Y-46037500D01*
X83185000Y-109347000D02*
X84963000Y-111125000D01*
X108204000Y-105918000D02*
X108204000Y-106553000D01*
X46863000Y-53975000D02*
X45085000Y-52197000D01*
X65405000Y-120967500D02*
X65405000Y-120904000D01*
X46355000Y-119761000D02*
X46736000Y-119380000D01*
X65913000Y-53975000D02*
X64135000Y-52197000D01*
X48641000Y-109220000D02*
X48641000Y-106299000D01*
X65405000Y-120904000D02*
X64135000Y-119634000D01*
X84963000Y-53975000D02*
X84963000Y-55626000D01*
X102235000Y-90297000D02*
X102235000Y-84137500D01*
X45085000Y-71247000D02*
X45085000Y-65151000D01*
X102235000Y-84137500D02*
X103505000Y-82867500D01*
X64135000Y-119634000D02*
X64135000Y-114554000D01*
X105918000Y-65659000D02*
X108204000Y-67945000D01*
X65913000Y-93726000D02*
X65913000Y-92075000D01*
X107823000Y-75311000D02*
X107823000Y-78486000D01*
X64135000Y-107061000D02*
X64135000Y-103187500D01*
X46291500Y-82867500D02*
X45085000Y-84074000D01*
X103505000Y-44767500D02*
X103505000Y-44831000D01*
X103505000Y-101854000D02*
X102235000Y-100584000D01*
X46355000Y-82867500D02*
X45085000Y-81597500D01*
X84963000Y-93726000D02*
X83185000Y-95504000D01*
X83185000Y-57404000D02*
X83185000Y-60617769D01*
X83185000Y-81597500D02*
X84455000Y-82867500D01*
X55880000Y-119761000D02*
X55880000Y-120967500D01*
X84455000Y-44767500D02*
X84455000Y-44831000D01*
X83185000Y-60617769D02*
X82514333Y-61288436D01*
X103505000Y-120967500D02*
X103505000Y-120523000D01*
X104648000Y-119380000D02*
X105029000Y-119380000D01*
X45085000Y-52197000D02*
X45085000Y-46037500D01*
X83566000Y-86360000D02*
X83185000Y-86360000D01*
X102235000Y-62547500D02*
X103505000Y-63817500D01*
X83185000Y-86360000D02*
X83185000Y-90297000D01*
X104013000Y-92075000D02*
X102235000Y-90297000D01*
X102235000Y-95631000D02*
X104013000Y-93853000D01*
X84455798Y-72517798D02*
X84963000Y-73025000D01*
X46736000Y-119380000D02*
X55499000Y-119380000D01*
X64135000Y-76454000D02*
X64135000Y-81597500D01*
X46355000Y-82867500D02*
X46291500Y-82867500D01*
X46355000Y-104013000D02*
X46355000Y-101917500D01*
X64135000Y-46037500D02*
X65405000Y-44767500D01*
X65913000Y-92075000D02*
X64135000Y-90297000D01*
X51181000Y-63373000D02*
X51181000Y-58039000D01*
X107823000Y-114935000D02*
X110744000Y-112014000D01*
X105918000Y-103632000D02*
X108204000Y-105918000D01*
X65405000Y-63817500D02*
X65405000Y-63881000D01*
X83185000Y-106172000D02*
X83185000Y-109347000D01*
X64135000Y-84137500D02*
X65405000Y-82867500D01*
X64135000Y-81597500D02*
X65405000Y-82867500D01*
X84963000Y-111125000D02*
X84963000Y-112903000D01*
X84455000Y-63817500D02*
X84455798Y-63818298D01*
X102235000Y-57531000D02*
X102235000Y-62547500D01*
X46863000Y-73025000D02*
X45085000Y-71247000D01*
X54102000Y-66294000D02*
X51181000Y-63373000D01*
X45085000Y-117602000D02*
X45085000Y-118491000D01*
X65913000Y-74676000D02*
X64135000Y-76454000D01*
X83185000Y-103124000D02*
X83185000Y-106172000D01*
X83185000Y-62547500D02*
X82514333Y-61876833D01*
X64694285Y-66374768D02*
X64694285Y-71806285D01*
X84963000Y-74676000D02*
X83185000Y-76454000D01*
X65341500Y-101917500D02*
X64135000Y-100711000D01*
X84391500Y-82867500D02*
X83185000Y-84074000D01*
X65341500Y-63817500D02*
X64135000Y-62611000D01*
X110744000Y-112014000D02*
X110744000Y-108521500D01*
X84455798Y-63818298D02*
X84455798Y-72517798D01*
X109855000Y-107632500D02*
X109855000Y-108077000D01*
X64135000Y-57404000D02*
X65913000Y-55626000D01*
X46863000Y-110998000D02*
X48641000Y-109220000D01*
X65405000Y-63817500D02*
X64694285Y-64528215D01*
X45085000Y-95504000D02*
X45085000Y-100647500D01*
X84455000Y-44831000D02*
X83185000Y-46101000D01*
X104775000Y-103632000D02*
X105918000Y-103632000D01*
X46863000Y-112776000D02*
X46863000Y-110998000D01*
X45085000Y-84074000D02*
X45085000Y-90170000D01*
X107823000Y-116586000D02*
X107823000Y-114935000D01*
X103505000Y-101917500D02*
X103441500Y-101917500D01*
X64694285Y-64528215D02*
X64694285Y-66374768D01*
X102235000Y-52070000D02*
X104013000Y-53848000D01*
X46863000Y-74676000D02*
X46863000Y-73025000D01*
X84455000Y-101917500D02*
X84391500Y-101917500D01*
X105029000Y-81280000D02*
X104521000Y-81280000D01*
X46863000Y-91948000D02*
X46863000Y-93726000D01*
X65913000Y-55626000D02*
X65913000Y-53975000D01*
X109283500Y-107632500D02*
X109855000Y-107632500D01*
X48641000Y-106299000D02*
X46355000Y-104013000D01*
X63881000Y-119380000D02*
X56261000Y-119380000D01*
X52451000Y-56769000D02*
X52451000Y-55245000D01*
X46355000Y-120967500D02*
X46355000Y-119761000D01*
X46355000Y-63817500D02*
X45085000Y-62547500D01*
X52451000Y-55245000D02*
X52451000Y-51689000D01*
D21*
X56769000Y-43434000D02*
X55880000Y-42545000D01*
X82042000Y-51308000D02*
X81788000Y-51562000D01*
X82042000Y-42037000D02*
X82042000Y-51308000D01*
X59817000Y-43434000D02*
X56769000Y-43434000D01*
X81788000Y-41783000D02*
X82042000Y-42037000D01*
X51689000Y-42545000D02*
X51562000Y-42672000D01*
X55880000Y-42545000D02*
X51689000Y-42545000D01*
X80645000Y-80391000D02*
X73000000Y-80391000D01*
X71755000Y-81915000D02*
X71755000Y-94996000D01*
D20*
X58547000Y-37084000D02*
X56007000Y-37084000D01*
X56007000Y-37084000D02*
X55753000Y-37084000D01*
D21*
X48006000Y-108966000D02*
X48006000Y-106553000D01*
X44450000Y-75882500D02*
X44450000Y-93662500D01*
X44450000Y-102997000D02*
X44450000Y-94932500D01*
X44450000Y-37782500D02*
X43815000Y-37147500D01*
X44450000Y-74612500D02*
X43815000Y-75247500D01*
X44450000Y-53213000D02*
X44450000Y-37782500D01*
X48006000Y-106553000D02*
X44450000Y-102997000D01*
X44450000Y-94932500D02*
X43815000Y-94297500D01*
X44450000Y-53213000D02*
X44450000Y-54062500D01*
X44450000Y-93662500D02*
X43815000Y-94297500D01*
X44450000Y-56832500D02*
X44450000Y-74612500D01*
X43815000Y-113157000D02*
X48006000Y-108966000D01*
X44450000Y-54062500D02*
X45125000Y-54737500D01*
X43815000Y-75247500D02*
X44450000Y-75882500D01*
X43815000Y-56197500D02*
X44450000Y-56832500D01*
X43815000Y-113347500D02*
X43815000Y-113157000D01*
X62865000Y-75247500D02*
X63500000Y-75882500D01*
X62865000Y-56197500D02*
X62865000Y-57658000D01*
X62865000Y-57658000D02*
X63500000Y-58293000D01*
X63500000Y-93662500D02*
X62865000Y-94297500D01*
X63500000Y-55562500D02*
X62865000Y-56197500D01*
X63500000Y-58293000D02*
X63500000Y-74612500D01*
X62865000Y-37147500D02*
X63500000Y-37782500D01*
X63500000Y-75882500D02*
X63500000Y-93662500D01*
X63500000Y-94932500D02*
X62865000Y-94297500D01*
X63500000Y-74612500D02*
X62865000Y-75247500D01*
X62865000Y-113347500D02*
X63500000Y-112712500D01*
X63500000Y-37782500D02*
X63500000Y-55562500D01*
X63500000Y-112712500D02*
X63500000Y-94932500D01*
X82550000Y-74612500D02*
X81915000Y-75247500D01*
X83810189Y-66260189D02*
X83810189Y-70415609D01*
X82550000Y-71675798D02*
X82550000Y-74612500D01*
X82550000Y-56832500D02*
X82550000Y-60084150D01*
X81915000Y-75247500D02*
X82550000Y-75882500D01*
X82550000Y-55562500D02*
X81915000Y-56197500D01*
X81915000Y-37147500D02*
X82550000Y-37782500D01*
X82550000Y-94932500D02*
X82550000Y-112712500D01*
X81915000Y-94297500D02*
X82550000Y-94932500D01*
X82550000Y-60084150D02*
X81731776Y-60902374D01*
X81731776Y-64181776D02*
X83810189Y-66260189D01*
X81915000Y-56197500D02*
X82550000Y-56832500D01*
X82550000Y-93662500D02*
X81915000Y-94297500D01*
X82550000Y-112712500D02*
X81915000Y-113347500D01*
X83810189Y-70415609D02*
X82550000Y-71675798D01*
X82550000Y-75882500D02*
X82550000Y-93662500D01*
X81731776Y-60902374D02*
X81731776Y-64181776D01*
X82550000Y-37782500D02*
X82550000Y-55562500D01*
X101981000Y-103124000D02*
X101600000Y-102743000D01*
X100775000Y-108862500D02*
X101600000Y-108037500D01*
X96456500Y-72072500D02*
X95250000Y-70866000D01*
X101600000Y-94932500D02*
X100965000Y-94297500D01*
X101981000Y-65024000D02*
X101600000Y-64643000D01*
X101981000Y-104648000D02*
X101981000Y-103124000D01*
X102235000Y-73977500D02*
X100965000Y-75247500D01*
X101600000Y-105029000D02*
X101981000Y-104648000D01*
X101600000Y-75882500D02*
X101600000Y-93662500D01*
X101600000Y-66929000D02*
X101981000Y-66548000D01*
X100965000Y-75247500D02*
X101600000Y-75882500D01*
X101600000Y-102743000D02*
X101600000Y-94932500D01*
X100775000Y-70762500D02*
X101600000Y-69937500D01*
X101600000Y-69937500D02*
X101600000Y-66929000D01*
X101981000Y-66548000D02*
X101981000Y-65024000D01*
X101600000Y-108037500D02*
X101600000Y-105029000D01*
X101600000Y-55562500D02*
X101600000Y-37782500D01*
X100965000Y-56197500D02*
X101600000Y-55562500D01*
X101600000Y-56832500D02*
X100965000Y-56197500D01*
X102235000Y-72072500D02*
X102235000Y-73977500D01*
X101600000Y-37782500D02*
X100965000Y-37147500D01*
X102235000Y-72072500D02*
X96456500Y-72072500D01*
X101600000Y-64643000D02*
X101600000Y-56832500D01*
X101600000Y-93662500D02*
X100965000Y-94297500D01*
X75000000Y-68348645D02*
X75006716Y-68348645D01*
X77528191Y-70870120D02*
X77528191Y-79305429D01*
X77538625Y-84269625D02*
X77538625Y-81387899D01*
X81788000Y-88519000D02*
X77538625Y-84269625D01*
X75006716Y-68348645D02*
X77528191Y-70870120D01*
X68961000Y-66040000D02*
X68961000Y-69000000D01*
X65532000Y-47244000D02*
X66802000Y-48514000D01*
X68961000Y-69000000D02*
X69691872Y-69730872D01*
X69469000Y-57912000D02*
X69469000Y-65532000D01*
X69469000Y-65532000D02*
X68961000Y-66040000D01*
X66802000Y-55245000D02*
X69469000Y-57912000D01*
X69691872Y-69730872D02*
X74832524Y-69730872D01*
X66802000Y-48514000D02*
X66802000Y-55245000D01*
X92202000Y-90932000D02*
X92202000Y-52705000D01*
X92964000Y-91694000D02*
X92202000Y-90932000D01*
X92964000Y-98806000D02*
X92964000Y-91694000D01*
X93980000Y-99822000D02*
X92964000Y-98806000D01*
X92202000Y-52705000D02*
X92075000Y-52578000D01*
X54737000Y-43434000D02*
X54610000Y-43307000D01*
X59055000Y-66675000D02*
X59055000Y-66421000D01*
X59055000Y-66421000D02*
X54737000Y-62103000D01*
X54737000Y-62103000D02*
X54737000Y-43434000D01*
X55245000Y-61849000D02*
X59690000Y-66294000D01*
X55499000Y-43307000D02*
X55245000Y-43561000D01*
X59690000Y-66294000D02*
X59690000Y-69215000D01*
X59690000Y-69215000D02*
X59055000Y-69850000D01*
X55245000Y-43561000D02*
X55245000Y-61849000D01*
X60071000Y-37719000D02*
X60071000Y-41910000D01*
X60071000Y-41910000D02*
X59944000Y-42037000D01*
X58547000Y-36195000D02*
X60071000Y-37719000D01*
X54991000Y-36195000D02*
X52197000Y-36195000D01*
X52197000Y-36195000D02*
X50800000Y-37592000D01*
X55753000Y-36195000D02*
X54991000Y-36195000D01*
X62738000Y-47752000D02*
X62484000Y-48006000D01*
X61595000Y-48006000D02*
X57150000Y-52451000D01*
X62484000Y-48006000D02*
X61595000Y-48006000D01*
X76327000Y-85217000D02*
X76327000Y-115697000D01*
X76327000Y-84328000D02*
X76327000Y-85217000D01*
D20*
X56388000Y-110998000D02*
X56388000Y-112776000D01*
X93091000Y-44958000D02*
X94996000Y-43053000D01*
X55499000Y-93218000D02*
X55499000Y-110109000D01*
X45720000Y-51816000D02*
X47498000Y-53594000D01*
X54483000Y-114681000D02*
X54483000Y-118110000D01*
X55499000Y-81280000D02*
X55499000Y-93218000D01*
X56388000Y-112776000D02*
X54483000Y-114681000D01*
X50546000Y-60833000D02*
X50292000Y-61087000D01*
X50546000Y-63754000D02*
X50546000Y-61341000D01*
X55499000Y-68707000D02*
X50546000Y-63754000D01*
X47498000Y-53594000D02*
X47498000Y-54864000D01*
X55499000Y-77089000D02*
X55499000Y-68707000D01*
X74549000Y-99695000D02*
X74549000Y-88900000D01*
X92837000Y-67310000D02*
X92837000Y-87630000D01*
X55499000Y-81280000D02*
X55499000Y-77089000D01*
X47498000Y-54864000D02*
X50546000Y-57912000D01*
X46736000Y-47752000D02*
X45720000Y-48768000D01*
X50546000Y-60833000D02*
X50546000Y-61341000D01*
X92837000Y-66167000D02*
X92837000Y-67310000D01*
X92837000Y-66167000D02*
X92837000Y-45212000D01*
X55499000Y-110109000D02*
X56388000Y-110998000D01*
X50546000Y-61341000D02*
X50292000Y-61087000D01*
X74549000Y-100330000D02*
X74549000Y-99695000D01*
X50546000Y-57912000D02*
X50546000Y-60833000D01*
X45720000Y-48768000D02*
X45720000Y-51816000D01*
X92837000Y-87630000D02*
X92837000Y-90589090D01*
X92837000Y-45212000D02*
X93091000Y-44958000D01*
D21*
X106045000Y-82867500D02*
X106045000Y-81153000D01*
X108458000Y-75565000D02*
X111379000Y-72644000D01*
X111379000Y-72644000D02*
X111379000Y-68834000D01*
X111379000Y-68834000D02*
X109855000Y-67310000D01*
X109855000Y-67310000D02*
X109855000Y-66992500D01*
X108458000Y-78740000D02*
X108458000Y-75565000D01*
X106045000Y-81153000D02*
X108458000Y-78740000D01*
X108458000Y-115189000D02*
X111379000Y-112268000D01*
X111379000Y-106680000D02*
X109855000Y-105156000D01*
X106045000Y-119253000D02*
X108458000Y-116840000D01*
X109855000Y-105156000D02*
X109855000Y-105092500D01*
X111379000Y-112268000D02*
X111379000Y-106680000D01*
X106045000Y-120967500D02*
X106045000Y-119253000D01*
X108458000Y-116840000D02*
X108458000Y-115189000D01*
M02*
